<svg xmlns="http://www.w3.org/2000/svg" viewBox="0 0 120 120">
  <defs><clipPath id="c"><circle cx="60" cy="60" r="56"/></clipPath></defs>
  <g clip-path="url(#c)">
    <circle cx="60" cy="60" r="60" fill="#4a2a1a"/>
    <!-- dark suit -->
    <path d="M0,88 Q30,80 60,78 Q90,80 120,88 L120,120 L0,120 Z" fill="#1a2a4a"/>
    <!-- white shirt/tie -->
    <path d="M52,78 Q60,76 68,78 L66,88 L60,82 L54,88 Z" fill="#f0f0f0"/>
    <rect x="57" y="82" width="6" height="8" rx="1" fill="#8a2020"/>
    <!-- face (angular, strong jaw) -->
    <ellipse cx="60" cy="58" rx="24" ry="27" fill="#e0c0a0"/>
    <!-- silver/gray combed hair -->
    <path d="M36,52 Q37,27 60,25 Q83,27 84,52 Q80,38 68,36 Q64,28 60,28 Q40,38 36,52Z" fill="#b0a898"/>
    <!-- well-groomed, parted -->
    <path d="M60,28 Q60,36 68,36" stroke="#d0c8c0" stroke-width="1" fill="none"/>
    <!-- eyes (warm, direct) -->
    <circle cx="52" cy="53" r="3.5" fill="white"/>
    <circle cx="68" cy="53" r="3.5" fill="white"/>
    <circle cx="52" cy="53" r="2.2" fill="#1a0a00"/>
    <circle cx="68" cy="53" r="2.2" fill="#1a0a00"/>
    <circle cx="52.8" cy="52.3" r=".9" fill="white"/>
    <circle cx="68.8" cy="52.3" r=".9" fill="white"/>
    <!-- brows -->
    <path d="M46,47 Q52,45 57,47" stroke="#8a7060" stroke-width="1.5" fill="none" stroke-linecap="round"/>
    <path d="M63,47 Q68,45 74,47" stroke="#8a7060" stroke-width="1.5" fill="none" stroke-linecap="round"/>
    <!-- nose -->
    <circle cx="60" cy="61" r="1.5" fill="#b08060" opacity="0.5"/>
    <!-- mouth (broad, friendly) -->
    <path d="M53,68 Q60,73 67,68" stroke="#c07860" stroke-width="1.5" fill="none" stroke-linecap="round"/>
    <!-- microphone hint -->
    <rect x="74" y="82" width="5" height="10" rx="2" fill="#888888" opacity="0.7"/>
    <ellipse cx="76.5" cy="82" rx="4" ry="5" fill="#666666" opacity="0.7"/>
  </g>
  <circle cx="60" cy="60" r="56" fill="none" stroke="white" stroke-width="4"/>
</svg>
