<svg xmlns="http://www.w3.org/2000/svg" viewBox="0 0 120 120">
  <defs><clipPath id="c"><circle cx="60" cy="60" r="56"/></clipPath></defs>
  <g clip-path="url(#c)">
    <circle cx="60" cy="60" r="60" fill="#1a2a4a"/>
    <!-- Calvin's distinctive black academic hat -->
    <ellipse cx="60" cy="36" rx="30" ry="7" fill="#1a1a1a"/>
    <path d="M38,36 L42,18 L78,18 L82,36 Z" fill="#1a1a1a"/>
    <!-- dark robe -->
    <path d="M0,88 Q30,80 60,78 Q90,80 120,88 L120,120 L0,120 Z" fill="#1a1a1a"/>
    <!-- white collar -->
    <path d="M48,78 Q60,76 72,78 L70,86 Q60,82 50,86 Z" fill="#f0f0f0"/>
    <!-- face -->
    <ellipse cx="60" cy="60" rx="23" ry="26" fill="#dab080"/>
    <!-- small dark beard (chin) -->
    <path d="M44,74 Q60,80 76,74 Q76,86 60,90 Q44,86 44,74Z" fill="#2a1a00"/>
    <!-- eyes (sharp, intellectual) -->
    <circle cx="52" cy="55" r="3.5" fill="white"/>
    <circle cx="68" cy="55" r="3.5" fill="white"/>
    <circle cx="52" cy="55" r="2.2" fill="#1a0a00"/>
    <circle cx="68" cy="55" r="2.2" fill="#1a0a00"/>
    <circle cx="52.8" cy="54.3" r=".8" fill="white"/>
    <circle cx="68.8" cy="54.3" r=".8" fill="white"/>
    <!-- brows -->
    <path d="M46,49 Q52,47 57,49" stroke="#2a1a00" stroke-width="1.5" fill="none" stroke-linecap="round"/>
    <path d="M63,49 Q68,47 74,49" stroke="#2a1a00" stroke-width="1.5" fill="none" stroke-linecap="round"/>
    <!-- nose -->
    <circle cx="60" cy="63" r="1.5" fill="#a07850" opacity="0.5"/>
    <!-- mouth -->
    <path d="M54,69 Q60,73 66,69" stroke="#b07860" stroke-width="1.5" fill="none" stroke-linecap="round"/>
  </g>
  <circle cx="60" cy="60" r="56" fill="none" stroke="white" stroke-width="4"/>
</svg>
