<svg xmlns="http://www.w3.org/2000/svg" viewBox="0 0 120 120">
  <defs><clipPath id="c"><circle cx="60" cy="60" r="56"/></clipPath></defs>
  <g clip-path="url(#c)">
    <circle cx="60" cy="60" r="60" fill="#8a2020"/>
    <!-- crown -->
    <path d="M34,46 L34,30 L44,38 L60,22 L76,38 L86,30 L86,46 Z" fill="#f8d030" stroke="#c8a010" stroke-width="1"/>
    <!-- crown gems -->
    <circle cx="60" cy="28" r="3" fill="#cc2020"/>
    <circle cx="44" cy="38" r="2.5" fill="#2020cc"/>
    <circle cx="76" cy="38" r="2.5" fill="#20cc20"/>
    <!-- armor/cape -->
    <path d="M0,88 Q30,80 60,78 Q90,80 120,88 L120,120 L0,120 Z" fill="#8a2020"/>
    <!-- armor plate hint -->
    <path d="M30,80 Q60,76 90,80 L90,86 Q60,82 30,86 Z" fill="#c8c8c8" opacity="0.4"/>
    <!-- face -->
    <ellipse cx="60" cy="60" rx="24" ry="26" fill="#d8b080"/>
    <!-- short brown hair -->
    <path d="M36,56 Q37,32 60,30 Q83,32 84,56 Q80,42 60,40 Q40,42 36,56Z" fill="#8a6040"/>
    <!-- eyes -->
    <circle cx="52" cy="55" r="3.5" fill="white"/>
    <circle cx="68" cy="55" r="3.5" fill="white"/>
    <circle cx="52" cy="55" r="2" fill="#1a0a00"/>
    <circle cx="68" cy="55" r="2" fill="#1a0a00"/>
    <circle cx="52.8" cy="54.3" r=".8" fill="white"/>
    <circle cx="68.8" cy="54.3" r=".8" fill="white"/>
    <!-- brows -->
    <path d="M46,49 Q52,47 57,49" stroke="#6a4020" stroke-width="1.5" fill="none" stroke-linecap="round"/>
    <path d="M63,49 Q68,47 74,49" stroke="#6a4020" stroke-width="1.5" fill="none" stroke-linecap="round"/>
    <!-- nose -->
    <circle cx="60" cy="63" r="1.5" fill="#b08060" opacity="0.5"/>
    <!-- mouth -->
    <path d="M54,70 Q60,74 66,70" stroke="#c07860" stroke-width="1.5" fill="none" stroke-linecap="round"/>
    <!-- short beard -->
    <path d="M38,74 Q60,82 82,74 Q82,84 60,86 Q38,84 38,74Z" fill="#8a6040" opacity="0.8"/>
  </g>
  <circle cx="60" cy="60" r="56" fill="none" stroke="white" stroke-width="4"/>
</svg>
