<svg xmlns="http://www.w3.org/2000/svg" viewBox="0 0 120 120">
  <defs><clipPath id="c"><circle cx="60" cy="60" r="56"/></clipPath></defs>
  <g clip-path="url(#c)">
    <circle cx="60" cy="60" r="60" fill="#c8a030"/>
    <!-- halo -->
    <circle cx="60" cy="44" r="30" fill="none" stroke="#f8e040" stroke-width="5" opacity="0.9"/>
    <!-- long hair back -->
    <ellipse cx="60" cy="76" rx="30" ry="38" fill="#6b3a1f"/>
    <!-- clothing -->
    <path d="M0,92 Q30,84 60,82 Q90,84 120,92 L120,120 L0,120 Z" fill="#e8e4d8"/>
    <!-- face -->
    <ellipse cx="60" cy="58" rx="24" ry="27" fill="#e8c090"/>
    <!-- hair top -->
    <path d="M36,52 Q37,27 60,25 Q83,27 84,52 Q76,38 60,36 Q44,38 36,52Z" fill="#6b3a1f"/>
    <!-- eyes -->
    <circle cx="52" cy="53" r="3.5" fill="white"/>
    <circle cx="68" cy="53" r="3.5" fill="white"/>
    <circle cx="52" cy="53" r="2" fill="#1a0a00"/>
    <circle cx="68" cy="53" r="2" fill="#1a0a00"/>
    <circle cx="52.8" cy="52.3" r=".8" fill="white"/>
    <circle cx="68.8" cy="52.3" r=".8" fill="white"/>
    <!-- brows -->
    <path d="M46,47 Q52,45 57,47" stroke="#5a2c10" stroke-width="1.5" fill="none" stroke-linecap="round"/>
    <path d="M63,47 Q68,45 74,47" stroke="#5a2c10" stroke-width="1.5" fill="none" stroke-linecap="round"/>
    <!-- nose -->
    <circle cx="60" cy="61" r="1.5" fill="#b08060" opacity="0.5"/>
    <!-- mouth -->
    <path d="M54,67 Q60,72 66,67" stroke="#c07860" stroke-width="1.5" fill="none" stroke-linecap="round"/>
    <!-- beard -->
    <path d="M36,70 Q60,78 84,70 Q84,96 60,100 Q36,96 36,70Z" fill="#6b3a1f"/>
    <!-- beard highlight -->
    <path d="M46,72 Q60,76 74,72" stroke="#8a5a2a" stroke-width="1" fill="none" opacity="0.5"/>
  </g>
  <circle cx="60" cy="60" r="56" fill="none" stroke="white" stroke-width="4"/>
</svg>
