<svg xmlns="http://www.w3.org/2000/svg" viewBox="0 0 120 120">
  <defs><clipPath id="c"><circle cx="60" cy="60" r="56"/></clipPath></defs>
  <g clip-path="url(#c)">
    <circle cx="60" cy="60" r="60" fill="#8a2a1a"/>
    <!-- flame hints at bottom (martyrdom) -->
    <path d="M20,110 Q30,90 40,100 Q45,80 55,95 Q60,78 65,95 Q75,80 80,100 Q90,90 100,110Z" fill="#f87020" opacity="0.7"/>
    <path d="M30,112 Q38,96 46,104 Q50,88 58,100 Q62,84 66,100 Q74,88 82,104 Q90,96 98,112Z" fill="#f8c020" opacity="0.6"/>
    <!-- dark scholar robe -->
    <path d="M0,88 Q30,80 60,78 Q90,80 120,88 L120,120 L0,120 Z" fill="#3a3a3a"/>
    <!-- face -->
    <ellipse cx="60" cy="58" rx="24" ry="27" fill="#e0c090"/>
    <!-- short dark hair -->
    <path d="M36,52 Q37,27 60,25 Q83,27 84,52 Q80,38 60,36 Q40,38 36,52Z" fill="#3a1a00"/>
    <!-- eyes (intensity) -->
    <circle cx="52" cy="53" r="3.5" fill="white"/>
    <circle cx="68" cy="53" r="3.5" fill="white"/>
    <circle cx="52" cy="53" r="2.2" fill="#1a0a00"/>
    <circle cx="68" cy="53" r="2.2" fill="#1a0a00"/>
    <circle cx="52.8" cy="52.3" r=".8" fill="white"/>
    <circle cx="68.8" cy="52.3" r=".8" fill="white"/>
    <!-- brows (determined look) -->
    <path d="M46,46 Q52,44 57,47" stroke="#3a1a00" stroke-width="1.8" fill="none" stroke-linecap="round"/>
    <path d="M63,47 Q68,44 74,46" stroke="#3a1a00" stroke-width="1.8" fill="none" stroke-linecap="round"/>
    <!-- nose -->
    <circle cx="60" cy="61" r="1.5" fill="#b08060" opacity="0.5"/>
    <!-- mouth (set firm) -->
    <path d="M54,68 Q60,70 66,68" stroke="#c07860" stroke-width="1.5" fill="none" stroke-linecap="round"/>
  </g>
  <circle cx="60" cy="60" r="56" fill="none" stroke="white" stroke-width="4"/>
</svg>
