<svg xmlns="http://www.w3.org/2000/svg" viewBox="0 0 120 120">
  <defs><clipPath id="c"><circle cx="60" cy="60" r="56"/></clipPath></defs>
  <g clip-path="url(#c)">
    <circle cx="60" cy="60" r="60" fill="#3a5a2a"/>
    <!-- dark monk/scholar robe -->
    <path d="M0,88 Q30,80 60,78 Q90,80 120,88 L120,120 L0,120 Z" fill="#1a1a1a"/>
    <!-- white collar -->
    <path d="M48,78 Q60,76 72,78 L70,84 Q60,80 50,84 Z" fill="#f0f0f0"/>
    <!-- face (round, robust) -->
    <ellipse cx="60" cy="60" rx="25" ry="27" fill="#dab080"/>
    <!-- short dark hair -->
    <path d="M35,54 Q36,28 60,26 Q84,28 85,54 Q80,40 60,38 Q40,40 35,54Z" fill="#3a1a00"/>
    <!-- eyes (direct gaze) -->
    <circle cx="52" cy="55" r="3.5" fill="white"/>
    <circle cx="68" cy="55" r="3.5" fill="white"/>
    <circle cx="52" cy="55" r="2.2" fill="#1a0a00"/>
    <circle cx="68" cy="55" r="2.2" fill="#1a0a00"/>
    <circle cx="52.8" cy="54.3" r=".8" fill="white"/>
    <circle cx="68.8" cy="54.3" r=".8" fill="white"/>
    <!-- brows (strong) -->
    <path d="M45,49 Q52,47 57,49" stroke="#3a1a00" stroke-width="2" fill="none" stroke-linecap="round"/>
    <path d="M63,49 Q68,47 75,49" stroke="#3a1a00" stroke-width="2" fill="none" stroke-linecap="round"/>
    <!-- nose -->
    <circle cx="60" cy="63" r="1.8" fill="#b08060" opacity="0.5"/>
    <!-- mouth -->
    <path d="M53,70 Q60,74 67,70" stroke="#c07860" stroke-width="1.5" fill="none" stroke-linecap="round"/>
    <!-- light beard shadow (chin) -->
    <path d="M42,73 Q60,80 78,73 Q78,82 60,84 Q42,82 42,73Z" fill="#3a1a00" opacity="0.4"/>
    <!-- 95 Theses scroll hint -->
    <rect x="28" y="86" width="10" height="14" rx="2" fill="#e8d8a0" opacity="0.7"/>
    <line x1="30" y1="90" x2="36" y2="90" stroke="#a09060" stroke-width="0.8" opacity="0.8"/>
    <line x1="30" y1="93" x2="36" y2="93" stroke="#a09060" stroke-width="0.8" opacity="0.8"/>
    <line x1="30" y1="96" x2="36" y2="96" stroke="#a09060" stroke-width="0.8" opacity="0.8"/>
  </g>
  <circle cx="60" cy="60" r="56" fill="none" stroke="white" stroke-width="4"/>
</svg>
