<svg xmlns="http://www.w3.org/2000/svg" viewBox="0 0 120 120">
  <defs><clipPath id="c"><circle cx="60" cy="60" r="56"/></clipPath></defs>
  <g clip-path="url(#c)">
    <circle cx="60" cy="60" r="60" fill="#3a6a3a"/>
    <!-- dark coat -->
    <path d="M0,88 Q30,80 60,78 Q90,80 120,88 L120,120 L0,120 Z" fill="#3a3a3a"/>
    <!-- white cravat/collar -->
    <path d="M50,78 Q60,76 70,78 L68,86 Q60,82 52,86 Z" fill="#f0f0f0"/>
    <!-- face -->
    <ellipse cx="60" cy="58" rx="24" ry="27" fill="#d8b080"/>
    <!-- short brown hair -->
    <path d="M36,52 Q37,27 60,25 Q83,27 84,52 Q80,38 60,36 Q40,38 36,52Z" fill="#6a4a20"/>
    <!-- ears -->
    <ellipse cx="36" cy="60" rx="5" ry="7" fill="#d8b080"/>
    <ellipse cx="84" cy="60" rx="5" ry="7" fill="#d8b080"/>
    <!-- eyes (earnest) -->
    <circle cx="52" cy="53" r="3.5" fill="white"/>
    <circle cx="68" cy="53" r="3.5" fill="white"/>
    <circle cx="52" cy="53" r="2" fill="#1a0a00"/>
    <circle cx="68" cy="53" r="2" fill="#1a0a00"/>
    <circle cx="52.8" cy="52.3" r=".8" fill="white"/>
    <circle cx="68.8" cy="52.3" r=".8" fill="white"/>
    <!-- brows -->
    <path d="M46,47 Q52,45 57,47" stroke="#5a3010" stroke-width="1.5" fill="none" stroke-linecap="round"/>
    <path d="M63,47 Q68,45 74,47" stroke="#5a3010" stroke-width="1.5" fill="none" stroke-linecap="round"/>
    <!-- nose -->
    <circle cx="60" cy="61" r="1.5" fill="#b08060" opacity="0.5"/>
    <!-- mouth (friendly) -->
    <path d="M54,67 Q60,72 66,67" stroke="#c07860" stroke-width="1.5" fill="none" stroke-linecap="round"/>
    <!-- globe hint (world missions) -->
    <circle cx="82" cy="88" r="10" fill="none" stroke="#e8d0a0" stroke-width="1.5" opacity="0.6"/>
    <path d="M72,88 Q82,84 92,88" stroke="#e8d0a0" stroke-width="0.8" fill="none" opacity="0.6"/>
    <path d="M82,78 Q86,88 82,98" stroke="#e8d0a0" stroke-width="0.8" fill="none" opacity="0.6"/>
  </g>
  <circle cx="60" cy="60" r="56" fill="none" stroke="white" stroke-width="4"/>
</svg>
